<svg xmlns="http://www.w3.org/2000/svg" viewBox="10 0 135 92">
  <path d="M57.64,69.16h50.01c5.49,0,10.4-3.43,12.33-8.61l19.71-54.44h-70.98c-5.08,0-9.63,3.16-11.4,7.92l-12.93,35.85c-3.47,9.33,3.38,19.27,13.26,19.27Z" fill="#221dff"/>
  <path d="M97.12,28.12h-50.01c-5.49,0-10.4,3.43-12.33,8.61l-19.71,54.44h70.98c5.08,0,9.63-3.16,11.4-7.92l12.93-35.85c3.47-9.33-3.38-19.27-13.26-19.27Z" fill="#ff31fa"/>
  <path d="M97.12,28.12h-44.89l-7.85,21.77c-3.47,9.33,3.38,19.27,13.26,19.27h44.89l7.85-21.77c3.47-9.33-3.38-19.27-13.26-19.27Z" fill="#8733ff"/>
</svg>
